<?xml version="1.0" encoding="iso-8859-1"?>
<!-- Generator: Adobe Illustrator 19.0.0, SVG Export Plug-In . SVG Version: 6.00 Build 0)  -->
<svg version="1.1" id="Layer_1" xmlns="http://www.w3.org/2000/svg" xmlns:xlink="http://www.w3.org/1999/xlink" x="0px" y="0px"
	 viewBox="0 0 512 512" style="enable-background:new 0 0 512 512;" xml:space="preserve">
<g>
	<g>
		<g>
			<path d="M437.885,81.874h-71.646v-58.91C366.239,10.282,355.957,0,343.275,0H168.725c-12.682,0-22.964,10.282-22.964,22.964
				v58.91H74.115c-12.682,0-22.964,10.282-22.964,22.964c0,12.682,10.282,22.964,22.964,22.964h2.794v361.233
				c0,12.682,10.282,22.964,22.964,22.964h312.253c12.682,0,22.964-10.282,22.964-22.964V127.803h2.794
				c12.682,0,22.964-10.282,22.964-22.964S450.567,81.874,437.885,81.874z M320.309,45.929v35.945H191.69V45.929H320.309z
				 M389.162,466.071H122.838V127.803h266.324V466.071z"/>
			<path d="M184.044,413.979c12.682,0,22.964-10.282,22.964-22.964V224.373c0-12.682-10.282-22.964-22.964-22.964
				c-12.682,0-22.964,10.282-22.964,22.964v166.642C161.08,403.697,171.362,413.979,184.044,413.979z"/>
			<path d="M255.999,413.979c12.683,0,22.964-10.282,22.964-22.964V224.373c0-12.682-10.282-22.964-22.964-22.964
				c-12.682,0-22.964,10.282-22.964,22.964v166.642C233.035,403.697,243.317,413.979,255.999,413.979z"/>
			<path d="M327.954,413.979c12.682,0,22.964-10.282,22.964-22.964V224.373c0-12.682-10.282-22.964-22.964-22.964
				s-22.964,10.282-22.964,22.964v166.642C304.99,403.697,315.272,413.979,327.954,413.979z"/>
		</g>
	</g>
</g>
<g>
</g>
<g>
</g>
<g>
</g>
<g>
</g>
<g>
</g>
<g>
</g>
<g>
</g>
<g>
</g>
<g>
</g>
<g>
</g>
<g>
</g>
<g>
</g>
<g>
</g>
<g>
</g>
<g>
</g>
</svg>
